HIERARCHY
ROOT Hips
{
	OFFSET 0.00000 0.00000 0.00000
	CHANNELS 6 Xposition Yposition Zposition Zrotation Yrotation Xrotation 
	JOINT LHipJoint
	{
		OFFSET 0 0 0
		CHANNELS 3 Zrotation Yrotation Xrotation
		JOINT LeftUpLeg
		{
			OFFSET 1.85590 -1.73949 0.84976
			CHANNELS 3 Zrotation Yrotation Xrotation
			JOINT LeftLeg
			{
				OFFSET 2.36836 -6.50702 0.00000
				CHANNELS 3 Zrotation Yrotation Xrotation
				JOINT LeftFoot
				{
					OFFSET 2.53268 -6.95849 0.00000
					CHANNELS 3 Zrotation Yrotation Xrotation
					JOINT LeftToeBase
					{
						OFFSET 0.15935 -0.43781 1.94506
						CHANNELS 3 Zrotation Yrotation Xrotation
						End Site
						{
							OFFSET 0.00000 -0.00000 1.00661
						}
					}
				}
			}
		}
	}
	JOINT RHipJoint
	{
		OFFSET 0 0 0
		CHANNELS 3 Zrotation Yrotation Xrotation
		JOINT RightUpLeg
		{
			OFFSET -1.68297 -1.73949 0.84976
			CHANNELS 3 Zrotation Yrotation Xrotation
			JOINT RightLeg
			{
				OFFSET -2.44709 -6.72334 0.00000
				CHANNELS 3 Zrotation Yrotation Xrotation
				JOINT RightFoot
				{
					OFFSET -2.43843 -6.69953 0.00000
					CHANNELS 3 Zrotation Yrotation Xrotation
					JOINT RightToeBase
					{
						OFFSET -0.20854 -0.57295 2.02172
						CHANNELS 3 Zrotation Yrotation Xrotation
						End Site
						{
							OFFSET -0.00000 -0.00000 1.05594
						}
					}
				}
			}
		}
	}
	JOINT LowerBack
	{
		OFFSET 0 0 0
		CHANNELS 3 Zrotation Yrotation Xrotation
		JOINT Spine
		{
			OFFSET -0.01560 2.23971 -0.03712
			CHANNELS 3 Zrotation Yrotation Xrotation
			JOINT Spine1
			{
				OFFSET 0.05490 2.19225 -0.19086
				CHANNELS 3 Zrotation Yrotation Xrotation
				JOINT Neck
				{
					OFFSET 0 0 0
					CHANNELS 3 Zrotation Yrotation Xrotation
					JOINT Neck1
					{
						OFFSET -0.12403 1.43168 0.27585
						CHANNELS 3 Zrotation Yrotation Xrotation
						JOINT Head
						{
							OFFSET 0.17855 1.46173 -0.32578
							CHANNELS 3 Zrotation Yrotation Xrotation
							End Site
							{
								OFFSET 0.07217 1.51590 -0.14537
							}
						}
					}
				}
				JOINT LeftShoulder
				{
					OFFSET 0 0 0
					CHANNELS 3 Zrotation Yrotation Xrotation
					JOINT LeftArm
					{
						OFFSET 3.27650 0.85634 0.05396
						CHANNELS 3 Zrotation Yrotation Xrotation
						JOINT LeftForeArm
						{
							OFFSET 4.96755 -0.00000 0.00000
							CHANNELS 3 Zrotation Yrotation Xrotation
							JOINT LeftHand
							{
								OFFSET 3.35751 -0.00000 0.00000
								CHANNELS 3 Zrotation Yrotation Xrotation
								JOINT LeftFingerBase
								{
									OFFSET 0 0 0
									CHANNELS 3 Zrotation Yrotation Xrotation
									JOINT LeftHandIndex1
									{
										OFFSET 0.79697 -0.00000 0.00000
										CHANNELS 3 Zrotation Yrotation Xrotation
										End Site
										{
											OFFSET 0.64254 -0.00000 0.00000
										}
									}
								}
								JOINT LThumb
								{
									OFFSET 0 0 0
									CHANNELS 3 Zrotation Yrotation Xrotation
									End Site
									{
										OFFSET 0.65235 -0.00000 0.65235
									}
								}
							}
						}
					}
				}
				JOINT RightShoulder
				{
					OFFSET 0 0 0
					CHANNELS 3 Zrotation Yrotation Xrotation
					JOINT RightArm
					{
						OFFSET -3.24434 1.02034 0.34688
						CHANNELS 3 Zrotation Yrotation Xrotation
						JOINT RightForeArm
						{
							OFFSET -5.21859 -0.00000 -0.00000
							CHANNELS 3 Zrotation Yrotation Xrotation
							JOINT RightHand
							{
								OFFSET -3.36504 -0.00000 0.00000
								CHANNELS 3 Zrotation Yrotation Xrotation
								JOINT RightFingerBase
								{
									OFFSET 0 0 0
									CHANNELS 3 Zrotation Yrotation Xrotation
									JOINT RightHandIndex1
									{
										OFFSET -0.62044 -0.00000 0.00000
										CHANNELS 3 Zrotation Yrotation Xrotation
										End Site
										{
											OFFSET -0.50022 -0.00000 0.00000
										}
									}
								}
								JOINT RThumb
								{
									OFFSET 0 0 0
									CHANNELS 3 Zrotation Yrotation Xrotation
									End Site
									{
										OFFSET -0.50786 -0.00000 0.50786
									}
								}
							}
						}
					}
				}
			}
		}
	}
}
MOTION
Frames: 6
Frame Time: .0083333
8.862400 16.070700 2.426200 -2.417700 -6.912400 8.151000 0.000000 0.000000 0.000000 -13.621300 -9.372400 -46.736300 5.016400 13.402300 40.893600 -0.010100 3.296100 -4.149600 0.000500 0.138800 0.381400 0.000000 0.000000 0.000000 20.222800 -6.426000 11.229900 -3.535000 -11.514500 34.035400 -0.285400 -4.052100 9.511600 -1.568300 7.902200 -22.417300 -4.592300 4.189400 -4.408900 2.592200 5.765000 -0.588200 5.523800 2.872400 1.135600 -13.398500 -6.428500 -19.900000 15.189900 -8.411100 18.313400 6.426000 -3.181900 10.416600 0.000000 0.000000 0.000000 -85.212300 27.175900 -3.490100 3.622200 -6.244800 -0.197700 -0.000000 -0.000000 37.619600 18.646300 -25.749600 -8.339900 -7.125000 0.000000 -0.000000 -6.704700 3.160700 6.369300 0.000000 0.000000 0.000000 77.686400 10.211800 49.635300 -22.612200 33.662000 -6.922200 0.000000 -0.000000 -16.637900 -35.193600 -19.166300 13.036800 7.125000 -0.000000 -0.000000 -7.267100 -52.876300 1.414300
8.886700 16.114100 2.670400 -1.411900 -7.018700 7.996600 0.000000 0.000000 0.000000 -15.182600 -9.037100 -45.658800 5.004600 13.388900 40.842400 0.025800 2.678200 -5.134700 0.003900 0.400800 1.101400 0.000000 0.000000 0.000000 19.130700 -5.889200 9.290600 -4.517200 -12.818500 38.693000 -0.267700 -6.237500 9.557000 -1.551400 7.861500 -22.294100 -5.409800 4.202100 -4.314000 2.221500 5.821800 -0.569600 5.588100 2.899600 1.052000 -13.568100 -6.421600 -19.584600 15.429300 -8.394900 17.885800 6.534500 -3.178200 10.224200 -0.000000 -0.000000 0.000000 -85.110200 26.403400 -4.029600 3.629400 -6.257100 -0.198400 -0.000000 -0.000000 39.062500 19.688400 -26.109200 -8.949000 -7.125000 0.000000 -0.000000 -6.109300 2.617400 5.857700 -0.000000 -0.000000 0.000000 78.031300 9.527100 48.925300 -22.630500 33.682300 -6.932300 0.000000 -0.000000 -16.187300 -34.136300 -18.889900 12.379800 7.125000 -0.000000 -0.000000 -6.154300 -52.337300 1.115000
8.901000 16.159200 2.912200 0.070200 -7.157200 7.894300 0.000000 0.000000 0.000000 -17.314900 -8.669600 -44.560300 4.957400 13.335600 40.638200 0.062800 2.181900 -6.060400 0.000300 0.117100 0.321600 0.000000 0.000000 0.000000 17.553300 -5.302200 7.270500 -5.579400 -14.008000 43.269500 -0.141800 -8.792700 8.560100 -1.248300 7.083700 -19.963700 -6.954700 4.103800 -4.309100 1.824000 5.766400 -0.615400 6.031000 2.874100 0.897600 -13.462000 -6.354400 -19.412100 15.302200 -8.311100 17.794600 6.478600 -3.153300 10.133300 -0.000000 -0.000000 0.000000 -85.193700 25.797500 -4.783900 3.938300 -6.784200 -0.233500 -0.000000 -0.000000 39.044200 17.978600 -25.924800 -8.074800 -7.125000 0.000000 -0.000000 -7.124600 3.090600 6.783600 -0.000000 -0.000000 0.000000 78.388900 8.808400 48.441900 -22.556700 33.600500 -6.891400 0.000000 -0.000000 -16.011000 -33.585700 -18.293600 11.773700 7.125000 -0.000000 -0.000000 -5.621800 -51.540000 0.907900
8.929900 16.205600 3.146000 1.130800 -7.222000 7.682000 0.000000 0.000000 0.000000 -18.996300 -8.216200 -43.270400 4.844500 13.206500 40.146300 0.091700 1.691100 -6.604800 0.002900 0.346000 0.950700 0.000000 0.000000 0.000000 16.304300 -4.991300 5.317700 -6.672700 -15.049900 47.625200 0.054100 -10.860300 6.753300 -0.910200 6.079200 -17.014500 -7.810500 3.983500 -4.109300 1.472600 5.635400 -0.549600 6.125000 2.805900 0.827700 -13.171900 -6.297300 -19.716500 15.064200 -8.250700 18.016600 6.354500 -3.115300 10.232400 0.000000 -0.000000 0.000000 -85.295700 24.994600 -5.739200 4.436100 -7.630500 -0.296000 -0.000000 -0.000000 37.822000 14.610400 -25.486700 -6.400000 -7.125000 0.000000 -0.000000 -9.131800 4.038000 8.577700 0.000000 -0.000000 0.000000 78.967500 8.409200 47.487000 -22.315000 33.331200 -6.758100 0.000000 -0.000000 -14.464900 -33.230600 -20.315800 12.814600 7.125000 -0.000000 -0.000000 -5.041700 -53.784000 1.091000
8.952200 16.244600 3.382200 2.304700 -7.377700 7.467600 0.000000 0.000000 0.000000 -20.834000 -7.572600 -42.009300 4.721600 13.063200 39.605600 0.125900 1.132300 -7.216000 0.001200 0.222500 0.611400 0.000000 0.000000 0.000000 14.943200 -4.660300 3.416200 -7.750000 -15.932200 51.657000 0.223200 -12.095800 4.930100 -0.728400 5.452900 -15.205000 -8.655400 3.929700 -4.207300 0.971700 5.625700 -0.303100 6.093400 2.774500 1.111400 -13.031800 -6.224300 -19.955300 15.170400 -8.167400 17.846800 6.376900 -3.047800 10.203200 0.000000 -0.000000 0.000000 -85.104300 23.737300 -6.525400 4.824400 -8.287900 -0.349700 -0.000000 -0.000000 36.353700 11.821000 -25.145800 -5.082100 -7.125000 0.000000 -0.000000 -10.806500 4.742400 10.060400 0.000000 -0.000000 0.000000 79.580000 8.229300 46.783400 -22.169100 33.167600 -6.678100 0.000000 -0.000000 -13.913900 -32.825100 -21.764500 13.451800 7.125000 -0.000000 -0.000000 -4.399300 -55.339100 1.118200
8.979600 16.345000 3.623000 3.242300 -7.358100 7.337800 0.000000 0.000000 0.000000 -22.494500 -6.984100 -40.503800 4.563900 12.875200 38.903200 0.172700 0.612200 -8.096000 0.005400 -0.473000 -1.299800 0.000000 0.000000 0.000000 13.645600 -4.673200 0.665200 -8.749500 -16.643800 55.219700 0.256000 -12.555900 4.835800 -1.157600 6.830900 -19.215400 -9.177100 3.834800 -4.243000 0.526800 5.538400 -0.193100 5.925600 2.715600 1.257000 -13.103300 -6.064800 -19.540300 15.597400 -8.005900 17.315000 6.559200 -2.956500 9.938900 -0.000000 -0.000000 0.000000 -84.923400 22.749500 -7.306100 5.081700 -8.722100 -0.387800 -0.000000 -0.000000 36.282400 11.255600 -25.574600 -4.910300 -7.125000 0.000000 -0.000000 -11.167200 4.386500 10.485400 -0.000000 -0.000000 0.000000 80.114300 7.726200 46.693200 -22.101900 33.091900 -6.641400 0.000000 -0.000000 -14.727800 -33.413200 -20.586200 13.059600 7.125000 -0.000000 -0.000000 -5.207900 -54.131300 1.171200
